<svg width="24" height="24" xmlns="http://www.w3.org/2000/svg">
 <g>
  <title>background</title>
  <rect x="-1" y="-1" width="26" height="26" id="canvas_background" fill="none"/>
 </g>

 <g>
  <title>Layer 1</title>
  <path d="m14.5,4c-3,0 -5.5,2.5 -5.5,5.5c0,1 0.3,1.9 0.7,2.8l-5.7,5.7l0,2l4,0l0,-2l2,0l0,-2l2,0l1.2,-1.2c0.400001,0.099999 0.900001,0.2 1.3,0.2c3,0 5.5,-2.5 5.5,-5.5s-2.5,-5.5 -5.5,-5.5zm1.5,5c-0.8,0 -1.5,-0.7 -1.5,-1.5s0.7,-1.5 1.5,-1.5c0.799999,0 1.5,0.7 1.5,1.5s-0.700001,1.5 -1.5,1.5z" id="svg_1" fill-opacity="0.8" fill="#0c0c0d"/>
 </g>
</svg>