<svg width="64" height="64" xmlns="http://www.w3.org/2000/svg">

 <g>
  <title>background</title>
  <rect fill="none" id="canvas_background" height="402" width="582" y="-1" x="-1"/>
 </g>
 <g>
  <title>Layer 1</title>
  <path fill="#f9f9fa" fill-opacity="0.8" id="svg_1" d="m55.087002,24.853001c-0.977001,-6.743 -4.993,-11.406001 -11.711002,-14.070001c1.145,-0.605 1.885002,-0.908 1.885002,-0.908c-3.236,-1.14 -6.045002,-1.804 -8.477001,-2.106c1.278999,-0.963 2.132999,-1.329 2.132999,-1.329c-19.751999,-2.786 -29.492,8.2 -30.104,18.428c-3.87,0.679001 -6.813,4.042 -6.813,8.101002c0,4.016998 2.883,7.354 6.696,8.079998c0.436,9.415001 10.7,16.951 23.303,16.951c12.605,0 22.868999,-7.535999 23.305,-16.951c3.812,-0.727001 6.695999,-4.064999 6.695999,-8.079998c0,-4.092001 -2.994999,-7.478003 -6.912998,-8.116001m-46.186002,13.284c-2.31,-0.600002 -4.023,-2.674999 -4.023,-5.167999c0,-2.416002 1.613,-4.438002 3.816,-5.106001c0.049,2.161999 0.618,4.228998 1.613999,6.134001c-0.684999,1.310997 -1.151,2.698997 -1.407,4.139999m35.647,1.786999c1.327999,1.656002 2.105999,3.59 2.105999,5.665001c0,6.082001 -6.562,11.009998 -14.654999,11.009998s-14.654001,-4.927998 -14.654001,-11.009998c0,-2.075001 0.777,-4.008999 2.107,-5.665001c-4.556999,-2.757999 -7.474,-6.98 -7.474,-11.719c0,-16.934 20.021001,-6.146 20.021001,-6.146s20.021999,-10.787 20.021999,6.146c0,4.738001 -2.917,8.961 -7.473,11.719m10.550999,-1.786999c-0.256001,-1.440002 -0.722,-2.829002 -1.405998,-4.141003c0.995998,-1.904999 1.563999,-3.971998 1.612999,-6.133999c2.202999,0.669001 3.814999,2.690001 3.814999,5.105999c0,2.494003 -1.711998,4.569 -4.021999,5.169003"/>
  <path fill="#f9f9fa" fill-opacity="0.8" id="svg_2" d="m34.145,40.803001c0.553001,0 1,-0.919003 1,-2.057003c0,-1.132999 -0.446999,-2.058998 -1,-2.058998c-0.554001,0 -1,0.925999 -1,2.058998c0,1.138 0.445999,2.057003 1,2.057003"/>
  <path fill="#f9f9fa" fill-opacity="0.8" id="svg_3" d="m29.853001,40.803001c0.552999,0 1,-0.919003 1,-2.057003c0,-1.132999 -0.447001,-2.058998 -1,-2.058998c-0.554001,0 -1,0.925999 -1,2.058998c0,1.138 0.445999,2.057003 1,2.057003"/>
  <ellipse fill="#f9f9fa" fill-opacity="0.8" id="svg_4" ry="4.5" rx="3.5" cy="31.746" cx="40.682"/>
  <ellipse fill="#f9f9fa" fill-opacity="0.8" id="svg_5" ry="4.5" rx="3.5" cy="31.746" cx="23.318"/>
  <path fill="#f9f9fa" fill-opacity="0.8" id="svg_6" d="m31.997999,45.438999c-4.688999,0 -9.459,-1.271 -9.844999,-0.941998c-1.424999,1.213997 2.944,6.938999 9.844999,6.976997c6.9,-0.035 11.272001,-5.761997 9.844,-6.976997c-0.385998,-0.328003 -5.153999,0.942997 -9.844,0.941998"/>
 </g>
</svg>