<svg width="299" height="197" xmlns="http://www.w3.org/2000/svg">
 <metadata id="metadata7">image/svg+xml</metadata>

 <g>
  <title>background</title>
  <rect fill="none" id="canvas_background" height="402" width="582" y="-1" x="-1"/>
 </g>
 <g>
  <title>Layer 1</title>
  <path fill-opacity="0.8" fill="#0c0c0d" id="path2384" d="m35.33075,190.049393c-11.093079,-0.30217 -20.51505,-0.896362 -20.93771,-1.32045c-2.54672,-2.555252 0.0422,-33.938354 2.98868,-36.228943c2.602451,-2.023163 2.673321,-8.404297 0.161961,-14.584763c-2.30501,-5.672684 -2.31729,-5.85231 -0.44099,-6.44783c1.80895,-0.574142 1.69837,-1.053528 -1.762159,-7.638924c-2.03073,-3.864494 -5.007501,-8.341606 -6.615041,-9.949142c-3.0932,-3.093208 -3.08343,-5.879341 0.02062,-5.879341c5.04416,0 8.61254,5.290253 15.266549,22.633163c2.663561,6.942291 5.228691,13.008194 5.700291,13.479782c0.47159,0.471588 6.916601,1.110031 14.322248,1.418747c19.226772,0.801514 21.964802,1.222183 21.964802,3.374603c0,3.029831 3.496597,5.186249 9.396812,5.795212c3.774315,0.389542 5.603188,1.022232 5.603188,1.938385c0,0.839462 1.129356,1.360107 2.95031,1.360107c1.622673,0 3.310173,0.631714 3.75,1.403793c0.439827,0.772079 1.92469,1.559586 3.29969,1.75c1.712967,0.237213 2.602386,1.068222 2.825249,2.639709c0.229683,1.619583 0.817368,2.140503 2,1.772827c2.102318,-0.653595 4.64666,0.861084 3.785912,2.253815c-0.375748,0.607971 0.510139,1.176529 2.121887,1.361801c3.327034,0.382431 4.547646,4.347351 1.575424,5.117462c-0.994659,0.257736 0.055885,0.520798 2.334541,0.584595c4.936256,0.138214 5.356987,0.899857 5.356987,9.697784l0,6.418213l-27.75,-0.200607c-15.262497,-0.110321 -36.82616,-0.44783 -47.91925,-0.75zm67.66925,-2.210297c-3.444862,-1.425003 -48.0327,-2.314819 -61.5,-1.227341l-11,0.888245l15,0.540802c28.488167,1.027084 60.201637,0.915833 57.5,-0.201706zm-79.76199,-1.804108c1.628019,-1.901382 3.025959,-1.958054 43.171093,-1.75c38.776283,0.200958 41.518486,0.100601 41.946114,-1.534988c0.251656,-0.962494 0.217545,-2.667786 -0.075798,-3.789505c-0.442009,-1.690247 -1.248238,-2.002502 -4.70797,-1.82341c-3.765236,0.194901 -5.515953,-0.690201 -17.85231,-9.025452c-7.522728,-5.08284 -15.59951,-11.430206 -17.94841,-14.10524l-4.270729,-4.863708l-11.920101,-1.101242c-7.168087,-0.662216 -12.28318,-0.738159 -12.83086,-0.190475c-1.335308,1.335297 7.7118,3.110748 14.578682,2.860992c4.7631,-0.173233 6.08709,0.142014 7.247421,1.725632c1.206078,1.646057 1.21365,2.24791 0.050297,4c-1.70789,2.572235 -5.249489,2.801224 -4.8316,0.312408c0.246002,-1.465118 -0.49025,-1.75 -4.522728,-1.75l-4.81657,0l0,3.920135c0,6.873154 -5.00074,10.08696 -12.537609,8.057495c-4.754211,-1.280167 -8.305361,-6.048096 -7.375711,-9.902954c0.66848,-2.771942 -2.296249,-9.074677 -4.26862,-9.074677c-0.75589,0 -1.2726,1.256088 -1.2726,3.093613c0,2.132813 -0.556499,3.239151 -1.79183,3.562195c-1.51845,0.397095 -1.976259,2.404327 -3.0007,13.156387c-1.66264,17.450241 -1.6282,18.083145 1.04253,19.156647c3.349279,1.346237 4.141529,1.222687 5.98801,-0.933853zm75.417896,-13.522018c-0.872475,-1.877213 -1.241333,-2.0905 -1.504303,-0.869827c-0.268272,1.2453 1.207283,3.214157 2.504303,3.341553c0.085762,0.008408 -0.364235,-1.103851 -1,-2.471725zm-4.905907,-2.593063c-0.962502,-0.560608 -1.75,-1.761932 -1.75,-2.669601c0,-1.280701 -0.267906,-1.382385 -1.196251,-0.454056c-0.928337,0.928345 -0.760368,1.525925 0.75,2.668198c1.070435,0.80957 2.396248,1.47258 2.946251,1.473343c0.550003,0.000763 0.212502,-0.457275 -0.75,-1.017883zm-7.178574,-5.491333c-0.916664,-0.916672 -1.94989,-1.383438 -2.296043,-1.037292c-0.346161,0.346161 0.237061,1.262939 1.296043,2.037292c2.48983,1.820602 3.15522,1.155212 1,-1zm-42.990685,-0.911453c1.33099,-2.031357 1.422447,-3.069214 0.502918,-5.706985c-2.52351,-7.238937 -8.06736,-9.826431 -12.19976,-5.694031c-1.68449,1.684479 -2.007719,2.924088 -1.58474,6.077606c0.72827,5.429703 3.112919,7.80629 7.832779,7.80629c2.96624,0 4.186192,-0.555893 5.448803,-2.48288zm15.419258,-9.01712c0,-0.824997 -0.692741,-1.5 -1.539429,-1.5c-1.2719,0 -1.315342,0.254059 -0.25,1.46196c1.639179,1.858505 1.789429,1.86171 1.789429,0.03804zm-5.25,-2.189331c-0.962502,-0.251526 -2.537498,-0.251526 -3.5,0c-0.962502,0.251526 -0.174999,0.457336 1.75,0.457336c1.924999,0 2.712502,-0.205811 1.75,-0.457336zm83.75,37.054306c-6.916794,-0.953094 -7.625183,-1.393753 -9.66938,-6.014969c-1.56221,-3.531647 -1.867279,-5.63327 -1.337311,-9.212692c1.38784,-9.373505 3.911522,-13.152237 17.068504,-25.556824c6.849884,-6.45816 12.907028,-12.588013 13.460358,-13.621918c0.967621,-1.808014 0.843185,-1.821487 -3.258057,-0.352966c-2.345261,0.839767 -11.014114,3.028107 -19.264114,4.863007c-17.04921,3.791931 -21.931473,5.511673 -28.986649,10.210342c-5.752045,3.83078 -9.91951,4.22757 -13.092674,1.246521l-2.208214,-2.074509l-4.183006,2.134003c-5.150589,2.62764 -8.529457,2.369186 -8.529457,-0.652405c0,-2.51059 12.747223,-14.598831 20.861511,-19.783066c10.026207,-6.405777 21.627388,-11.531456 31.959198,-14.120369c11.814224,-2.960358 15.858383,-5.030922 18.585709,-9.51564c1.862228,-3.06218 1.85881,-3.18531 -0.248322,-8.97094c-1.536209,-4.218002 -2.701431,-5.947113 -4.147293,-6.154343c-1.408203,-0.201836 -2.111725,-1.187256 -2.347565,-3.288208c-0.185211,-1.650002 -0.972717,-3.359863 -1.75,-3.79969c-0.793121,-0.448792 -1.413239,-2.324532 -1.413239,-4.27475c0,-2.843079 -0.484161,-3.659142 -2.662262,-4.487251c-2.523911,-0.959587 -10.686737,-0.375847 -12.837738,0.918053c-0.550003,0.330841 -3.59864,0.715637 -6.774757,0.855095c-4.80909,0.211174 -6.063255,-0.093208 -7.5,-1.820236c-0.948883,-1.140587 -2.749275,-2.475967 -4.00087,-2.967506c-1.251595,-0.491531 -2.567955,-1.68795 -2.92524,-2.658707c-0.357292,-0.970757 -1.33297,-2.831619 -2.168175,-4.135254c-1.44838,-2.260712 -1.715958,-9.276073 -0.510315,-13.379753c0.340813,-1.16008 -0.034126,-1.75 -1.112274,-1.75c-0.894516,0 -1.342598,-0.459209 -0.99572,-1.02047c0.346878,-0.56126 -0.526573,-2.39579 -1.940979,-4.076721c-3.460068,-4.112068 -3.551102,-12.906467 -0.217468,-21.010349c2.457077,-5.97303 6.302025,-11.98724 7.450829,-11.65446c0.382233,0.11073 3.841019,-1.36003 7.686195,-3.26834c6.581474,-3.2663 7.527885,-3.45888 16.147514,-3.2858c5.035957,0.10112 10.896828,0.65254 13.024147,1.22537c5.648331,1.520929 12.911758,6.46274 16.075851,10.93751c2.221146,3.14122 5.87355,5.543079 18.672379,12.27916c8.751099,4.605759 20.505066,11.09977 26.119919,14.431141c33.514572,19.88467 51.166611,39.673756 58.614075,65.710209c2.115784,7.396896 2.354889,10.237938 2.354889,27.982994l0,19.750229l3.282135,-0.000229c11.365784,-0.000839 18.394501,-10.394943 18.596191,-27.500244c0.111908,-9.48925 -0.112183,-10.381401 -8.162506,-32.5c-5.334503,-14.656693 -7.449524,-26.510719 -7.047729,-39.5c0.29837,-9.645969 0.687805,-11.708809 3.163696,-16.758308c3.171051,-6.46727 7.13385,-9.94553 13.461304,-11.815401c3.686676,-1.089481 4.511139,-1.05065 5.8367,0.27492c1.391479,1.391479 1.097565,2.002541 -2.982086,6.200218c-5.736694,5.902603 -8.75293,13.58424 -9.416809,23.98241c-0.644165,10.088955 0.841644,18.284695 6.875183,37.923862c6.62085,21.550949 8.225342,30.023552 7.682709,40.569084c-0.561066,10.90329 -3.273346,17.432007 -9.764282,23.50351c-6.846222,6.403854 -14.909363,8.176834 -23.409149,5.147369c-3.8452,-1.370499 -3.917358,-1.349854 -7.10965,2.034973c-5.041092,5.345108 -13.624664,8.808319 -22.005707,8.878632c-4.799728,0.040268 -8.069855,-0.491333 -10.403641,-1.691269c-1.871994,-0.962494 -3.559494,-1.75 -3.75,-1.75c-0.190506,0 -0.346359,2.163986 -0.346359,4.808868c0,8.477798 0.185104,8.407654 -22.572403,8.554031c-13.792709,0.088715 -20.69725,-0.244507 -22.427597,-1.082382c-2.001434,-0.969131 1.627075,-1.087646 18.194595,-0.594223c18.590012,0.55365 20.96344,0.44017 23.338135,-1.115784c3.405746,-2.231537 3.050827,-3.787216 -4.130539,-18.104065c-3.136765,-6.253494 -5.768326,-12.968552 -6.074295,-15.5c-0.514053,-4.25293 -0.464355,-4.364578 1.039398,-2.335556c2.417984,3.262589 6.514328,15.241898 5.345245,15.631607c-1.304779,0.434906 3.19281,3.940353 10.78746,8.407761c5.556107,3.26828 6.432297,3.485428 11.843124,2.935165c9.681671,-0.984589 22.656876,-8.251633 22.656876,-12.689453c0,-1.053787 0.613861,-1.91597 1.364136,-1.91597c1.938812,0 4.577118,-7.565125 5.286102,-15.15744c0.794495,-8.507843 -1.181671,-25.00193 -4.273926,-35.672661c-9.860428,-34.026253 -38.695602,-60.94799 -85.376312,-79.71093c-9.495743,-3.81674 -10.882568,-4.71192 -14.5,-9.359579c-4.435669,-5.69894 -11.912277,-11.42029 -17.207733,-13.16795c-2.114731,-0.69793 -5.614883,-0.8717 -9.011078,-0.447371c-3.880371,0.48482 -5.775169,0.33469 -6.290031,-0.49837c-0.548775,-0.88795 -1.262878,-0.910649 -2.798241,-0.08894c-1.133789,0.60678 -3.076469,1.10324 -4.31707,1.10324c-1.240585,0 -5.346954,1.86781 -9.125244,4.15069c-5.609406,3.38925 -7.337852,5.07468 -9.421944,9.187429c-5.911423,11.66563 -3.051971,26.613171 4.624962,24.176601c1.032928,-0.327843 2.167488,-0.127769 2.52124,0.444599c0.353752,0.57238 0.166618,1.04068 -0.41584,1.04068c-0.582458,0 -1.059021,0.637501 -1.059021,1.416672c0,0.77916 -0.422394,1.566658 -0.938637,1.75c-0.516251,0.183327 -1.193451,2.808327 -1.504883,5.833328c-0.31144,3.025002 -0.301552,4.9375 0.021973,4.25c1.246284,-2.648449 2.421547,-1.055882 2.421547,3.281387c0,5.060959 1.846588,6.670036 5.229843,4.557144c2.415237,-1.508339 3.503784,-0.677429 1.800789,1.374565c-1.881599,2.267197 -0.495171,4.536903 2.771317,4.536903c1.575592,0 3.180328,-0.315613 3.566078,-0.701363c0.923973,-0.923965 7.512245,-1.623001 15.881973,-1.685097c4.796387,-0.035591 6.75,-0.421051 6.75,-1.331818c0,-0.704956 0.726089,-1.281723 1.613541,-1.281723c1.342789,0 1.501648,0.746162 0.946716,4.446716c-0.555191,3.702271 -0.323074,4.790466 1.386459,6.5c1.129303,1.129303 2.053284,2.877243 2.053284,3.8843c0,1.007065 1.036575,2.38578 2.303513,3.06382c3.750763,2.007355 12.649445,31.010963 12.681702,41.33371l0.014786,4.728561l-15.670166,15.348236l-15.670181,15.348251l-0.448975,8.554062c-0.404984,7.715927 -0.241333,8.761688 1.670166,10.673187c1.649734,1.649734 3.34848,2.119156 7.668823,2.119156c6.779602,0 10.757507,-1.913147 12.444077,-5.984909c1.684082,-4.06572 0.710648,-4.810394 -2.322815,-1.776932c-2.108795,2.108795 -2.760406,2.284317 -4.6754,1.259445c-2.101181,-1.124512 -1.814926,-1.417145 5.139679,-5.254242c9.218582,-5.086227 19.347748,-12.209808 29.503876,-20.749298c4.323502,-3.635315 9.210922,-7.196548 10.860916,-7.913849c3.992691,-1.735733 6.132187,-4.286285 7.973663,-9.505585c2.003952,-5.67981 1.92569,-8.600754 -0.412506,-15.396858c-1.206436,-3.506592 -1.565842,-5.865852 -0.951431,-6.245583c0.635574,-0.392807 0.595505,-1.082443 -0.112473,-1.935493c-0.604919,-0.728874 -1.196213,-2.831673 -1.314011,-4.67289c-0.117783,-1.841209 -1.382217,-5.367287 -2.80983,-7.835724c-1.427628,-2.468445 -4.052155,-7.56955 -5.832275,-11.3358c-1.780121,-3.766243 -4.992599,-8.603745 -7.138855,-10.75c-4.311935,-4.311943 -4.06218,-4.906883 0.812302,-1.934784c3.70784,2.26078 6.79364,6.838104 10.808304,16.032501c1.560989,3.574997 4.113525,8.444817 5.672272,10.821808c1.558762,2.376999 2.558441,4.76786 2.221512,5.313019c-0.924377,1.495674 2.346481,4.689026 9.727707,9.497223c6.871857,4.476372 11.855621,9.486526 11.855621,11.918365c0,0.768326 -1.935852,-0.538895 -4.301895,-2.904938c-2.366028,-2.366035 -7.154007,-6.238724 -10.639938,-8.60598l-6.338043,-4.304085l0.710159,5.382294c1.827774,13.852386 1.829025,13.798111 -0.430222,18.64946c-3,6.441971 -4.236801,7.686417 -13.780304,13.865646c-4.554153,2.9487 -8.536163,6.028137 -8.848923,6.843185c-0.312759,0.815048 0.372726,4.269501 1.5233,7.676559c2.133072,6.31633 2.07103,8.535095 -0.154465,5.524368c-1.148407,-1.553604 -1.887085,-1.563583 -10.033539,-0.135559c-12.085464,2.118484 -13.122986,2.624496 -14.584106,7.112778c-0.688583,2.115219 -1.485229,4.408356 -1.77034,5.095856c-0.388,0.935684 1.388519,1.25 7.064987,1.25c4.170822,0 7.583328,0.406555 7.583328,0.903473c0,0.496902 -4.162506,1.146591 -9.25,1.443741c-5.087494,0.297165 -10.824997,0.740738 -12.75,0.985718c-1.925003,0.24498 -4.850006,0.259399 -6.5,0.032043zm30.5,-18.864975c7.671692,-1.101486 8.074265,-1.337265 7.372864,-4.318024c-0.347092,-1.475082 -1.013977,-3.100479 -1.481964,-3.611969c-0.856827,-0.936493 -10.551743,5.111481 -13.08316,8.161636c-1.108353,1.33551 -1.008835,1.475632 0.700104,0.985657c1.095688,-0.314163 4.017151,-0.861938 6.492157,-1.2173zm106.277344,-3.560135c4.748352,-1.318619 10.248322,-6.089783 12.81131,-11.113632c2.7948,-5.478287 3.9375,-16.399887 2.832916,-27.076462c-1.235657,-11.943451 -3.088104,-19.606842 -8.641724,-35.749771c-4.25293,-12.362221 -4.681274,-14.483871 -5.082642,-25.173828c-0.560791,-14.937401 1.68219,-23.512722 7.844452,-29.990612c5.283051,-5.55365 3.823883,-7.27677 -2.73056,-3.224468c-2.89447,1.789509 -5.939514,4.852448 -7.774078,7.81979c-2.773499,4.486057 -3.04541,5.742638 -3.384155,15.638889c-0.450867,13.172516 1.066193,21.292671 7.950134,42.55368c8.11377,25.059311 9.3638,34.381157 5.864502,43.733864c-4.43222,11.846161 -12.16272,18.19017 -21.29007,17.471573c-3.594482,-0.28299 -4.218842,-0.039154 -4.474213,1.747421c-0.555847,3.888565 7.849792,5.647476 16.074127,3.363556zm-141.777344,-29.428131c9.350006,-2.496918 18.937943,-5.255478 21.306549,-6.130096c4.940308,-1.824265 4.932419,-1.632874 0.630127,-15.308235c-1.285019,-4.084633 -2.107422,-7.797134 -1.82753,-8.25c0.279877,-0.452873 0.062653,-0.823402 -0.482742,-0.823402c-0.545395,0 -1.27681,0.898529 -1.625366,1.996727c-0.953842,3.005295 -7.993652,6.613144 -17.501038,8.969154c-9.741829,2.414101 -14,3.947151 -14,5.040337c0,0.41996 -2.362503,1.530579 -5.25,2.46804c-7.60923,2.470421 -15.592117,6.941345 -21.997673,12.320145c-6.120239,5.139191 -11.305161,10.986115 -10.476807,11.814453c0.288406,0.288406 3.693192,-1.13559 7.56617,-3.164459c5.895447,-3.088333 7.640862,-3.576447 10.721832,-2.998459l3.680061,0.690384l-2.621796,2.736557c-1.441986,1.505112 -2.621788,2.986313 -2.621788,3.291565c0,0.305252 3.9375,-1.395264 8.75,-3.778915c5.71801,-2.832153 14.640717,-5.907043 25.75,-8.873795zm-37.042702,10.557373c0.73954,-1.196609 -1.141632,-2.382233 -2.47361,-1.559021c-1.118355,0.691177 -0.384171,2.489914 1.016312,2.489914c0.485077,0 1.140862,-0.418915 1.457298,-0.930893zm40.953819,-103.145836c1.423889,-1.692192 2.588882,-4.02512 2.588882,-5.184273c0,-3.478428 -3.993088,-10.633299 -7.352371,-13.174068c-6.168106,-4.665199 -11.130569,-3.52685 -12.863052,2.950689c-1.348679,5.042551 -2.784576,4.964399 -2.784576,-0.15156c0,-4.920689 4.864052,-9.856869 8.775169,-8.905279c11.968651,2.912001 20.925758,19.698309 13.589973,25.468641c-3.882065,3.053627 -4.919739,2.52039 -1.954025,-1.00415z"/>
 </g>
</svg>